<svg width="127" height="24" viewBox="0 0 127 24" fill="none" xmlns="http://www.w3.org/2000/svg">
<g clip-path="url(#clip0)">
<path d="M30.0336 12.0898C30.0336 10.095 30.7563 8.45966 32.22 7.21956C33.6839 5.97946 35.5631 5.36841 37.8942 5.36841C40.8758 5.36841 43.2611 6.44664 44.6344 8.42369L42.7731 9.68155C41.5443 8.18988 39.9359 7.47113 37.8761 7.47113C34.6957 7.47113 32.5993 9.28631 32.5993 12.0718C32.5993 14.8216 34.5147 16.5109 37.5687 16.5109C39.701 16.5109 41.3817 15.5583 42.5021 13.7611H38.2554V11.7663H45.122V18.38H43.1524V15.7919C42.014 17.643 39.9721 18.6316 37.3338 18.6316C32.8527 18.6316 30.0336 16.1336 30.0336 12.0898Z" fill="#07446B"/>
<path d="M49.9304 18.3801H47.1838L53.8879 5.62012H56.4901L63.1944 18.3801H60.3391L58.9839 15.6843H51.2858L49.9304 18.3801ZM52.3157 13.6356H57.9538L55.1166 8.02858L52.3157 13.6356Z" fill="#07446B"/>
<path d="M62.4182 5.62012H75.8626V7.77658H70.3871V18.3799H67.8935V7.7768H62.418V5.62012H62.4182Z" fill="#07446B"/>
<path d="M89.977 5.62012H92.4706V18.3801H89.977V12.9705H80.9597V18.3801H78.4661V5.62012H80.9597V10.8139H89.977V5.62012Z" fill="#07446B"/>
<path d="M96.0137 5.62012H108.988V7.72284H98.5073V10.8139H107.217V12.9166H98.5073V16.2772H108.988V18.3799H96.0137V5.62012Z" fill="#07446B"/>
<path d="M111.935 5.62012H121.295C124.06 5.62012 125.867 7.21969 125.867 9.62794C125.867 11.9463 124.024 13.4917 121.332 13.4917H121.079L126.247 18.3801H122.831L118.007 13.5816H114.429V18.3801H111.935V5.62012ZM120.79 11.4971C122.344 11.4971 123.283 10.7783 123.283 9.62816C123.283 8.44202 122.344 7.72327 120.79 7.72327H114.429V11.4973H120.79V11.4971Z" fill="#07446B"/>
<path d="M20.76 17.9915V15.8146L10.3614 21.8229L1.88376 16.9248V7.12898L12.3283 1.09426L10.4545 0L0 6.04041V18.0134L10.3614 24L20.76 17.9915Z" fill="#14E2AC"/>
<path d="M3.7677 15.8362L10.3612 19.6461L20.7598 13.6379V11.4612L10.3612 17.4692L5.65146 14.7481V9.30567L16.0754 3.28298L14.2019 2.18872L3.7677 8.21732V15.8362Z" fill="#14E2AC"/>
<path d="M19.8231 5.47158L17.9496 4.37732L7.53528 10.3943V13.6598L10.3615 15.2923L20.7601 9.28409V7.10695L10.3615 13.1154L9.41904 12.571V11.4829L19.8231 5.47158Z" fill="#14E2AC"/>
</g>
<defs>
<clipPath id="clip0">
<rect width="126.247" height="24" fill="white"/>
</clipPath>
</defs>
</svg>
