<svg xmlns="http://www.w3.org/2000/svg" version="1.1"  width="512" height="512" x="0" y="0" viewBox="0 0 512 512" style="enable-background:new 0 0 512 512" xml:space="preserve" class=""><g><g xmlns="http://www.w3.org/2000/svg" id="outline"><path d="m410.277 104.874c-27.1 6.032-72.974 17.417-82.469 19.781l-89.8-17.96a62.06 62.06 0 0 0 -48.034 10.158h-40.852a35.968 35.968 0 0 0 -34.522 26.181l-.944 3.368-24.638 14.079a68.636 68.636 0 0 0 -33.018 45.153l-15.424 71.992a25.887 25.887 0 0 0 13.736 28.579l3.605 1.8a25.893 25.893 0 0 0 11.576 2.717c.286 0 .571-.016.857-.025a31.827 31.827 0 0 0 25.33 27.047 31.45 31.45 0 0 0 6.176.61 32.066 32.066 0 0 0 25.571-12.74l9.845-13.127 11.976 28.443a35.473 35.473 0 0 0 66.1-25.7l-20.448-57.255a36.734 36.734 0 0 1 58.5-40.246l11.139 9.547a36.641 36.641 0 0 1 12.544 32.447 94.2 94.2 0 0 1 -33.278 60.877 46.59 46.59 0 0 0 -16.074 43.3l1.131 6.789a40.711 40.711 0 0 0 27.341 32 40.249 40.249 0 0 0 12.736 2.066 41.073 41.073 0 0 0 37.672-24.722l.2-.454a62.676 62.676 0 0 1 46.485-36.646l10.243-1.863a111.012 111.012 0 0 0 74.124-50.145 72.114 72.114 0 0 0 37.284-57.059l.379-4.543a177.61 177.61 0 0 0 -26.217-108.195 36.5 36.5 0 0 0 -38.832-16.254zm-280.268 42.475a19.912 19.912 0 0 1 19.113-14.5h23.563l-53.635 53.639zm-57.774 146.991a9.787 9.787 0 0 1 -7.162-.643l-3.6-1.8a9.889 9.889 0 0 1 -5.247-10.917l15.426-71.992a52.615 52.615 0 0 1 25.309-34.612l10.559-6.033zm57.365 1.713-14.973 19.965a15.947 15.947 0 0 1 -15.81 6.04 15.872 15.872 0 0 1 -12.171-19.843l18.671-66.68a50.131 50.131 0 0 0 2.082 6.006l22.7 53.912c-.174.19-.341.389-.499.6zm329.777-68.061-.377 4.543a55.987 55.987 0 0 1 -30.578 45.165 8.013 8.013 0 0 0 -3.282 3.039 95 95 0 0 1 -64.466 44.59l-10.243 1.862a78.662 78.662 0 0 0 -58.314 46.048l-.227.528a24.8 24.8 0 0 1 -47.245-5.7l-1.131-6.789a30.534 30.534 0 0 1 10.533-28.377 110.141 110.141 0 0 0 38.909-71.186 52.606 52.606 0 0 0 -18.009-46.579l-11.138-9.548a52.735 52.735 0 0 0 -83.982 57.775l20.451 57.262a19.49 19.49 0 0 1 -9.629 23.967 19.473 19.473 0 0 1 -26.655-9.86l-41.848-99.392a33.156 33.156 0 0 1 7.14-36.451l63.862-63.864a46.1 46.1 0 0 1 41.721-12.632l91.562 18.307a8.007 8.007 0 0 0 3.509-.084c.536-.133 53.827-13.446 83.814-20.122a20.477 20.477 0 0 1 21.783 9.115 161.506 161.506 0 0 1 23.84 98.383z" fill="#11c091" data-original="#000000" class=""></path></g></g></svg>